<svg xmlns="http://www.w3.org/2000/svg" viewBox="0 0 503.62 192.28"><defs><style>.cls-1{fill:#FFF;}</style></defs><g id="Ebene_2" data-name="Ebene 2"><g id="Logos"><path id="FAU_Logo_Bildmarke" class="cls-1" d="M0,17.92,9.74,8.18v177H0ZM29.23,9.74H146.16V0H19.49V116.92H127.11v-9.74H29.23Zm112.55,78H48.72v-39h79.59L138.05,39H48.72V29.23h97.44V19.49H39v78h93.19ZM19.49,185.13h9.74V136.41H39V177l9.74-9.74v-30.8h78.39v-9.74H19.49ZM493.88,0V112.05c0,26.08-11.63,48.48-38.78,65.66l-.22-.29c17.84-14.14,29.26-32.31,29.26-55.79V0h-9.75V121.47c0,35-28.35,61.23-63.33,61.23s-63.34-26.25-63.34-61.23V8.18L338,17.92V121.63c0,40.36,32.72,70.65,73.08,70.65h9.74c39.74,0,82.82-29.35,82.82-80.08V0ZM411.06,173c29.58,0,53.56-21.91,53.59-51.48h0V8.18l-9.75,9.74v94.13c0,18.84-15.26,31.67-34.1,31.67s-34.1-12.83-34.1-31.67V0H377V112.05c0,24.22,19.63,41.41,43.84,41.41,9.9,0,21.92-4.89,30.09-13.5l.22.29c-7.66,14.19-21.81,23-40.05,23-24.07,0-43.6-17.43-43.84-41.41h0V0h-9.74V121.8h0C357.67,151.2,381.59,173,411.06,173ZM194.54,126.67,169.9,185.13h9.74L192,155.9h82.56l12.31,29.23h9.74l-16.41-39H196.07l4.11-9.75H285.8l20.51,48.72h9.75l-24.62-58.46ZM208.88,0,137.27,169.86l6.2,8.42L218.62,0Zm39,0,75.06,178.28,6.19-8.42L257.59,0Zm-59,116.92-28.82,68.21h-9.74L223.49,11.57l40.26,95.61h9.74L228.36,0h9.75l49.23,116.92Zm44.38-59L212.5,107.18H254ZM193,107.18h9.77l25.64-60.83-4.88-11.59Z"/></g></g></svg>